<svg xmlns="http://www.w3.org/2000/svg" width="169.211" height="181.379" viewBox="0 0 169.211 181.379">
  <g id="Group_1" data-name="Group 1" transform="translate(0.003)">
    <path id="cube-fill-svgrepo-com" d="M85.356,88.354,163.88,43.76a19.549,19.549,0,0,0-4.585-3.251L100.526,7A30.807,30.807,0,0,0,85.356,2.5,30.805,30.805,0,0,0,70.183,7L11.421,40.509A19.515,19.515,0,0,0,6.837,43.76Z" transform="translate(-0.751 -2.5)" fill="#3c92b1"/>
    <path id="cube-fill-svgrepo-com-2" data-name="cube-fill-svgrepo-com" d="M83.147,154.782V69.26L4.879,24.583a27.873,27.873,0,0,0-.669,6.335V95.849c0,12.086,4.251,16.588,12,21.006L81.478,154.03a7.349,7.349,0,0,0,1.669.752Z" transform="translate(-4.211 26.597)" fill="#8abdd0"/>
    <path id="cube-fill-svgrepo-com-3" data-name="cube-fill-svgrepo-com" d="M43.162,154.782a7.348,7.348,0,0,0,1.667-.75l65.266-37.176c7.752-4.418,12-8.925,12-21.006V30.92a27.9,27.9,0,0,0-.669-6.335L43.162,69.26Z" transform="translate(47.11 26.597)" fill="#63a7c0"/>
  </g>
</svg>
