<svg xmlns="http://www.w3.org/2000/svg" width="408.133" height="181.379" viewBox="0 0 408.133 181.379">
  <g id="Group_12" data-name="Group 12" transform="translate(-79.77 -563.408)">
    <g id="Group_1" data-name="Group 1" transform="translate(-748.774 69.042)">
      <path id="Path_1" data-name="Path 1" d="M40.027,25.875A37.6,37.6,0,0,0,66.942,14.86,37.6,37.6,0,0,0,77.957-12.052,37.6,37.6,0,0,0,66.942-38.967,37.6,37.6,0,0,0,40.027-49.982,37.6,37.6,0,0,0,13.115-38.967,37.6,37.6,0,0,0,2.1-12.052,37.6,37.6,0,0,0,13.115,14.863,37.6,37.6,0,0,0,40.027,25.875Zm0-16.254c-11.878,0-21.256-8.648-21.256-21.673s9.378-21.673,21.256-21.673,21.256,8.648,21.256,21.673S51.906,9.621,40.027,9.621ZM117.34-29.14c-6.877,0-12.087,2.5-14.9,6.356v-4.9H86.811v52.1H102.44V-4.029c0-7.4,3.959-10.732,9.69-10.732,5,0,9.065,3.022,9.065,9.482v29.7h15.629V-7.571C136.824-21.638,127.864-29.14,117.34-29.14ZM161.519,4.62h36.989a30.29,30.29,0,0,0,.625-6.252c0-15.733-11.253-27.507-26.465-27.507-16.463,0-27.716,11.982-27.716,27.507S156,25.875,173.814,25.875c9.9,0,17.609-3.647,22.714-10.732l-12.5-7.189a13.6,13.6,0,0,1-10,3.959C168.291,11.913,163.5,10.038,161.519,4.62Zm-.313-11.67c1.459-5.314,5.418-8.231,11.357-8.231A10.726,10.726,0,0,1,183.608-7.05Z" transform="translate(1037.544 594.062)" fill="#dee3ea"/>
      <g id="Group_1-2" data-name="Group 1" transform="translate(828.547 494.366)">
        <path id="cube-fill-svgrepo-com" d="M85.356,88.354,163.88,43.76a19.549,19.549,0,0,0-4.585-3.251L100.526,7A30.807,30.807,0,0,0,85.356,2.5,30.805,30.805,0,0,0,70.183,7L11.421,40.509A19.515,19.515,0,0,0,6.837,43.76Z" transform="translate(-0.751 -2.5)" fill="#3c92b1"/>
        <path id="cube-fill-svgrepo-com-2" data-name="cube-fill-svgrepo-com" d="M83.147,154.782V69.26L4.879,24.583a27.873,27.873,0,0,0-.669,6.335V95.849c0,12.086,4.251,16.588,12,21.006L81.478,154.03a7.349,7.349,0,0,0,1.669.752Z" transform="translate(-4.211 26.597)" fill="#8abdd0"/>
        <path id="cube-fill-svgrepo-com-3" data-name="cube-fill-svgrepo-com" d="M43.162,154.782a7.348,7.348,0,0,0,1.667-.75l65.266-37.176c7.752-4.418,12-8.925,12-21.006V30.92a27.9,27.9,0,0,0-.669-6.335L43.162,69.26Z" transform="translate(47.11 26.597)" fill="#63a7c0"/>
      </g>
    </g>
  </g>
</svg>
